<?xml version="1.0" encoding="utf-8"?>
<!-- Generator: Adobe Illustrator 21.0.0, SVG Export Plug-In . SVG Version: 6.00 Build 0)  -->
<svg version="1.1" id="Layer_1" xmlns="http://www.w3.org/2000/svg" xmlns:xlink="http://www.w3.org/1999/xlink" x="0px" y="0px"
	 viewBox="0 0 922.5 190.4" style="enable-background:new 0 0 922.5 190.4;" xml:space="preserve">
<style type="text/css">
	.st0{fill:#EFEFEF;}
	.st1{fill:#E2E2E2;}
	.st2{fill:#FFFFFF;}
	.st3{fill:none;stroke:#CCC8C8;stroke-width:0.75;stroke-miterlimit:10;}
	.st4{fill:#1183B2;}
	.st5{fill:none;}
	.st6{fill:#1F2433;}
	.st7{fill:#18BBFF;}
	.st8{fill:none;stroke:#CCC8C8;stroke-miterlimit:10;}
	.st9{fill:#034AFC;}
	.st10{fill:url(#SVGID_11_);}
</style>
<g>
	<path class="st6" d="M36.4,141.9V35.4H59v106.6H36.4z"/>
	<path class="st6" d="M108.4,101v40.9H85.8V35.4h31.1c14.5,0,25.2,2.6,32.1,7.9c7,5.3,10.4,13.3,10.4,24c0,6.3-1.7,11.8-5.2,16.7
		c-3.5,4.9-8.3,8.7-14.7,11.5c16,24,26.5,39.4,31.3,46.4h-25.1L120.5,101H108.4z M108.4,82.7h7.3c7.1,0,12.4-1.2,15.8-3.6
		c3.4-2.4,5.1-6.1,5.1-11.2c0-5.1-1.7-8.7-5.2-10.8c-3.5-2.1-8.9-3.2-16.1-3.2h-6.9V82.7z"/>
	<path class="st6" d="M281.1,88.5c0,17.6-4.4,31.2-13.1,40.7c-8.7,9.5-21.3,14.2-37.6,14.2c-16.3,0-28.9-4.7-37.6-14.2
		s-13.1-23.1-13.1-40.8c0-17.7,4.4-31.3,13.2-40.6c8.8-9.4,21.3-14,37.7-14c16.4,0,28.9,4.7,37.6,14.1
		C276.8,57.3,281.1,70.8,281.1,88.5z M203.4,88.5c0,11.9,2.3,20.9,6.8,26.9c4.5,6,11.3,9,20.3,9c18,0,27-12,27-35.9
		c0-24-9-36-26.9-36c-9,0-15.8,3-20.3,9.1S203.4,76.6,203.4,88.5z"/>
	<path class="st6" d="M397.8,141.9h-28.7l-46.4-80.6H322c0.9,14.2,1.4,24.4,1.4,30.5v50.2h-20.2V35.4h28.5l46.3,79.8h0.5
		c-0.7-13.9-1.1-23.6-1.1-29.4V35.4h20.3V141.9z"/>
	<path class="st6" d="M426.3,35.4h29.2c13.2,0,22.8,2.2,29,6.7c6.2,4.5,9.3,11.2,9.3,20.3c0,6.2-1.9,11.3-5.7,15.4
		c-3.8,4.1-9.3,6.7-16.5,7.9v0.4c8.5,1.3,14.8,3.9,18.8,8.1c4,4.1,6,9.8,6,17.2c0,9.8-3.3,17.4-9.8,22.7c-6.5,5.3-15.7,7.9-27.7,7.9
		h-32.7V35.4z M433.7,82.8h23.5c10,0,17.3-1.7,21.8-5c4.5-3.3,6.8-8.5,6.8-15.6c0-7.1-2.6-12.2-7.7-15.5c-5.1-3.2-12.8-4.8-22.9-4.8
		h-21.5V82.8z M433.7,89.4v46h25.1c19.7,0,29.6-8,29.6-24.1c0-14.6-10.4-21.9-31.2-21.9H433.7z"/>
	<path class="st6" d="M598.3,35.4v69c0,12.2-3.5,21.8-10.6,28.7c-7.1,6.9-17,10.4-29.7,10.4c-12.3,0-22-3.5-28.9-10.4
		c-6.9-6.9-10.4-16.6-10.4-29V35.4h7.5v69c0,10.3,2.8,18.2,8.5,23.9c5.7,5.7,13.7,8.6,24.1,8.6c10.2,0,18-2.8,23.6-8.4
		s8.4-13.4,8.4-23.4V35.4H598.3z"/>
	<path class="st6" d="M708.2,87.6c0,17.9-4.7,31.4-14.1,40.6c-9.4,9.2-23.2,13.7-41.3,13.7h-25.5V35.4h28.8c17,0,30,4.4,38.8,13.3
		C703.8,57.6,708.2,70.6,708.2,87.6z M700.1,87.9c0-15.3-3.9-26.7-11.6-34.4c-7.8-7.7-19.1-11.6-34.2-11.6h-19.6v93.5h17.6
		C684.2,135.4,700.1,119.6,700.1,87.9z"/>
	<path class="st6" d="M813.6,87.6c0,17.9-4.7,31.4-14.1,40.6c-9.4,9.2-23.2,13.7-41.3,13.7h-25.5V35.4h28.8c17,0,30,4.4,38.8,13.3
		C809.2,57.6,813.6,70.6,813.6,87.6z M805.5,87.9c0-15.3-3.9-26.7-11.6-34.4c-7.8-7.7-19.1-11.6-34.2-11.6h-19.6v93.5h17.6
		C789.6,135.4,805.5,119.6,805.5,87.9z"/>
	<path class="st6" d="M862.6,93.7l31.2-58.3h8l-35.5,65.4v41.2h-7.7v-40.6l-35.6-66h8.5L862.6,93.7z"/>
</g>
</svg>
